<svg xmlns="http://www.w3.org/2000/svg" version="1.1" xmlns:xlink="http://www.w3.org/1999/xlink" xmlns:svgjs="http://svgjs.dev/svgjs" viewBox="0 0 12.009109489450843 12.009109489450843"><g transform="matrix(1,0,0,1,3.6470590898495763,3.4875017931209413)"><rect width="12.009109489450843" height="12.009109489450843" x="-3.6470590898495767" y="-3.4875017931209418" fill="#0e1425"></rect><g><path d=" M -1.0770024523648338 4.890647302566961 L -1.1070906409166144 4.851973009946766 L -0.9003015660902631 4.691093307894389 Q -0.8373275753010692 4.700381821450525 -0.7789544103948218 4.737956062877705 Q -0.7205812454885745 4.775530304304885 -0.6757559849930648 4.833147107596197 Q -0.6118953399035715 4.915231320504367 -0.596929089218986 5.009381526773106 Q -0.5819628385344007 5.103531733041845 -0.6167266904941202 5.190759736555182 Q -0.6514905424538397 5.277987740068519 -0.7312069415281202 5.340006251165047 Q -0.8109233406024006 5.402024762261574 -0.904021435672715 5.414271994368409 Q -0.9971195307430294 5.426519226475245 -1.0846987390002267 5.388861129324134 Q -1.1722779472574238 5.351203032173023 -1.2367526370112392 5.26832954798689 Q -1.2840340761640372 5.2075556595837265 -1.304302810702712 5.141603567879211 Q -1.3245715452413864 5.075651476174697 -1.3157218497359315 5.010484898165254 L -1.269237197026878 5.014864060473125 Q -1.2769471680270874 5.076609961933675 -1.2588725237418177 5.131599117536949 Q -1.2407978794565477 5.186588273140221 -1.2002709316112923 5.238680177485791 Q -1.1450069118223076 5.309714592502476 -1.068917822540432 5.342374973581924 Q -0.9928287332585564 5.375035354661372 -0.9120092769249486 5.364105328223157 Q -0.8311898205913408 5.353175301784943 -0.7625232194085448 5.299753415988925 Q -0.694645889503712 5.246945574857228 -0.6644851179766735 5.170900667987052 Q -0.634324346449635 5.094855761116876 -0.6465700755233141 5.013159420198484 Q -0.6588158045969934 4.931463079280093 -0.7140798243859781 4.860428664263408 Q -0.7877651841046241 4.765716110907826 -0.8867880743757093 4.742662538465347 L -1.0770024523648338 4.890647302566961 Z M -1.0620651024425491 4.389696251656137 Q -1.0996383618601084 4.4892929392352965 -1.2330391456931902 4.553388421702623 L -1.5962858746440818 4.727918688150817 L -1.6183728314402552 4.681949499127255 L -1.2569288157844052 4.508285387847539 Q -1.1406538082542192 4.452418379480747 -1.1085185602829695 4.371521371885742 Q -1.07638331231172 4.290624364290737 -1.1248880017464535 4.189672419768405 Q -1.1729596135969487 4.089621831893593 -1.2561980165083644 4.0641587550811415 Q -1.3394364194197799 4.03869567826869 -1.455711426949966 4.094562686635481 L -1.8171554426058159 4.268226797915197 L -1.8392423994019893 4.222257608891636 L -1.475995670451098 4.047727342443442 Q -1.342594886618016 3.983631859976115 -1.2411426835252493 4.016985277906277 Q -1.1396904804324826 4.050338695836437 -1.0820911617287363 4.170219129956707 Q -1.0244918430249899 4.290099564076977 -1.0620651024425491 4.389696251656137 Z M -1.4121274497486989 3.1903701124405672 L -1.5993828652912843 3.408499453314219 Q -1.585676779545495 3.4432290259221427 -1.5782608565927028 3.4733289276953756 L -1.5304161923811408 3.6675218423613924 L -1.3080653050885516 3.612739701839154 L -1.2958649157146034 3.6622588950789883 L -1.9755401170456621 3.829715219819455 L -2.0355851706311725 3.586003111913604 Q -2.067162649010803 3.457835788234033 -2.024419112257009 3.3700619876681635 Q -1.9816755755032143 3.282288187102294 -1.873898507863575 3.255734398464877 Q -1.793308448277178 3.2358788628170787 -1.7282819587390712 3.263628739543841 Q -1.6632554692009647 3.2913786162706034 -1.6220246416508057 3.3625826811793504 L -1.426002402370052 3.1340541671874225 L -1.4121274497486989 3.1903701124405672 Z M -1.6219542623925567 3.484093977142977 Q -1.6487472743510314 3.3753459449300074 -1.7109241966732813 3.329900589495894 Q -1.7731011189955312 3.2844552340617805 -1.8614588951685689 3.3062245562780412 Q -1.9498166713416065 3.327993878494302 -1.9837652417790348 3.3971223427131387 Q -2.0177138122164635 3.466250806931975 -1.9909208002579886 3.5749988391449445 L -1.9430761360464266 3.7691917538109614 L -1.5741095981809945 3.6782868918089937 L -1.6219542623925567 3.484093977142977 Z M -2.106753176785239 2.4972736497622536 Q -2.0477240388860527 2.41951240698104 -1.9368385841629883 2.4144709854692823 Q -1.826952097500492 2.409474982169342 -1.7611102278286597 2.4815589484733507 Q -1.6952683581568275 2.5536429147773596 -1.6892731541968993 2.6855066987723553 L -1.6801895118333716 2.885300310885985 L -1.4514258259632655 2.8748995403797455 L -1.449109497160566 2.9258469114687213 L -2.14838713955827 2.9576396597410683 L -2.1597871107244972 2.706898676538463 Q -2.1657823146844257 2.575034892543467 -2.106753176785239 2.4972736497622536 Z M -1.7919416341716896 2.5189978905378774 Q -1.8435707436367696 2.462284267343421 -1.934476837148471 2.466417324618826 Q -2.0253829306601725 2.470550381894231 -2.0721521751610554 2.531737698952725 Q -2.118921419661938 2.592925016011219 -2.1138345799383624 2.7048094387948516 L -2.104750937574835 2.9046030509084813 L -1.7261420426195064 2.887389548629596 L -1.735225684983034 2.6875959365159665 Q -1.7403125247066096 2.575711513732334 -1.7919416341716896 2.5189978905378774 Z M -1.4693561449838737 2.139029753500269 Q -1.5050455074186184 2.204289001189784 -1.5519509911579454 2.237226450926819 L -1.5864769607439582 2.20928083545416 Q -1.5428152074533816 2.1779176197454224 -1.5100575858258636 2.119322071917039 Q -1.4772999641983455 2.0607265240886554 -1.4679331674237335 1.9923652549504725 Q -1.4543580996344407 1.8932909518516563 -1.4850830502394514 1.8376045315113287 Q -1.5158080008444623 1.7819181111710012 -1.5762433257347401 1.7736373198195325 Q -1.6228082481911839 1.767257037958565 -1.6542143213619613 1.7902060808142433 Q -1.685620394532739 1.8131551236699217 -1.7059115671132785 1.850748584741054 Q -1.7262027396938182 1.8883420458121867 -1.7512856742863478 1.953540561073095 Q -1.7805625940728784 2.027248511579218 -1.8047083751526865 2.0708745503180945 Q -1.8288541562324947 2.1145005890569712 -1.8704189169260708 2.141609087143102 Q -1.911983677619647 2.168717585229232 -1.9744004885719013 2.160165292521978 Q -2.0249283831522975 2.1532420079494385 -2.0633696936661856 2.1207225423023086 Q -2.1018110041800733 2.0882030766551787 -2.1190454173317197 2.0298230714880123 Q -2.136279830483366 1.9714430663208464 -2.125012524218253 1.889211394748829 Q -2.117138984900463 1.8317482989515155 -2.0926943154116606 1.7785744507403582 Q -2.0682496459228576 1.7254006025292008 -2.033952320230591 1.6887169079175812 L -1.995911118840042 1.7131068032999663 Q -2.0303441952102017 1.7507812409425743 -2.052060749908617 1.7987775038390825 Q -2.0737773046070327 1.8467737667355908 -2.080429087823786 1.8953201752540108 Q -2.0935969035794 1.9914222492598626 -2.061745459265508 2.046253677247095 Q -2.029894014951616 2.101085105234327 -1.96846794703035 2.1095016472636887 Q -1.9219030245739064 2.1158819291246562 -1.890496951403129 2.092932886268978 Q -1.8590908782323514 2.0699838434132993 -1.8387997056518117 2.0323903823421667 Q -1.818508533071272 1.9947969212710344 -1.7922991047698613 1.928743413657031 Q -1.7630221849833307 1.8550354631509083 -1.7389442792424692 1.8119047959275254 Q -1.7148663735016076 1.7687741287041425 -1.6742923558390195 1.7415298799401193 Q -1.6337183381764313 1.714285631176096 -1.5722922702551654 1.7227021732054575 Q -1.521764375674769 1.7296254577779968 -1.4838863120153218 1.7625724196016743 Q -1.4460082483558745 1.7955193814253518 -1.4289774612210673 1.8553855011390001 Q -1.4119466740862603 1.9152516208526487 -1.4232139803513733 1.9974832924246662 Q -1.4336667825491287 2.0737705058107547 -1.4693561449838737 2.139029753500269 Z M -1.2789560311088657 0.7946669536483653 L -1.4333577868066103 1.1701614247627266 L -1.2850064209139258 1.327393330678081 L -1.3059229149123888 1.3782608082920955 L -1.8308706105906627 0.8142449248259732 L -1.8114753161557244 0.7670769001293416 L -1.0416144907499933 0.7354808638968217 L -1.0625309847484563 0.7863483415108361 L -1.2789560311088657 0.7946669536483653 Z M -1.3259508478974733 0.7958864596980446 L -1.7695707724752738 0.8124201379816745 L -1.4655209078508533 1.135311264867923 L -1.3259508478974733 0.7958864596980446 Z M -0.9874251921302692 0.5148449624074461 Q -1.0923127696467891 0.5330066276041185 -1.2152349033379233 0.4505799993289127 L -1.5499485511590518 0.22613451828223735 L -1.521544780604758 0.18377621545623846 L -1.1884922426983744 0.4071078231478434 Q -1.0813506531973183 0.4789526545498809 -0.9953358719509012 0.4655938594271529 Q -0.9093210907044842 0.452235064304425 -0.8469441828205446 0.3592129090787019 Q -0.7851242116141403 0.2670213088103513 -0.8054204649114067 0.18237461896312102 Q -0.8257167182086732 0.09772792911589068 -0.9328583077097292 0.02588309771385311 L -1.2659108456161128 -0.19744850997775187 L -1.237507075061819 -0.2398068128037507 L -0.9027934272406903 -0.015361331757075325 Q -0.7798712935495562 0.06706529651813042 -0.7571318759694745 0.17141048753390598 Q -0.7343924583893928 0.2757556785496814 -0.8084650365015711 0.3862194878802276 Q -0.8825376146137492 0.4966832972107738 -0.9874251921302692 0.5148449624074461 Z M -0.8592058613642015 -0.5943867396434821 L -1.0352359516060898 -0.414060903088005 L -1.0681525725646295 -0.4461933798781909 L -0.6804672547699944 -0.8433395675301347 L -0.647550633811455 -0.8112070907399487 L -0.8235807240533433 -0.6308812541844716 L -0.35559224346889057 -0.17404125808052337 L -0.3912173807797489 -0.13754674353953394 L -0.8592058613642015 -0.5943867396434821 Z M 0.001169889250751538 -0.5493952304605196 Q -0.0935263932037348 -0.540237496608734 -0.17874710210936207 -0.5796669370514076 Q -0.2639678110149893 -0.6190963774940812 -0.32101483815302906 -0.7012282025968497 Q -0.3780618652910688 -0.7833600276996182 -0.385257340349066 -0.8769841439234296 Q -0.39245281540706317 -0.9706082601472409 -0.35081026819095384 -1.0561485913446012 Q -0.30916772097484446 -1.1416889225419617 -0.22457194111899292 -1.2004473604941426 Q -0.13997616126314133 -1.2592057984463236 -0.04556511394434515 -1.268774191423623 Q 0.04884593337445098 -1.2783425844009226 0.1340666422800782 -1.238913143958249 Q 0.21928735118570547 -1.1994837035155754 0.27690484859512565 -1.1165305601617792 Q 0.3345223460045458 -1.033577416807983 0.3417178210625429 -0.9399533005841717 Q 0.3489132961205401 -0.8463291843603603 0.30698551376874056 -0.7611995122885138 Q 0.265057731416941 -0.6760698402166673 0.1804619515610894 -0.6173114022644863 Q 0.09586617170523787 -0.5585529643123053 0.001169889250751538 -0.5493952304605196 Z M 0.2614206398643968 -0.7794708632533781 Q 0.2969154248321465 -0.8528269825624938 0.29037131899196356 -0.9341192003865418 Q 0.28382721315178056 -1.01541141821059 0.23419629954168597 -1.0868661060499984 Q 0.18456538593159133 -1.1583207938894071 0.11067318350713828 -1.1928344494602627 Q 0.03678098108268518 -1.2273481050311181 -0.044351425595496374 -1.2196974458042174 Q -0.12548383227367788 -1.2120467865773163 -0.1977598383641142 -1.1618454026958414 Q -0.2700358444545505 -1.1116440188143664 -0.3059412885478141 -1.0380026643695608 Q -0.3418467326410776 -0.9643613099247548 -0.3353026268008947 -0.8830690921007067 Q -0.32875852096071173 -0.8017768742766587 -0.27912760735061715 -0.73032218643725 Q -0.2294966937405225 -0.6588674985978414 -0.1556044913160694 -0.6243538430269859 Q -0.08171228889161629 -0.5898401874561304 -0.00016922308792091667 -0.5977760818187214 Q 0.08137384271577444 -0.6057119761813126 0.15364984880621074 -0.6559133600627876 Q 0.22592585489664707 -0.7061147439442625 0.2614206398643968 -0.7794708632533781 Z M 1.283136588139722 -1.162796722264107 L 1.0689654001073603 -1.7222006033882968 L 0.9752894857564791 -1.1450439322230697 L 0.951927220775973 -1.136144237004658 L 0.49870361960126397 -1.5028230710518775 L 0.7112283414169325 -0.9449321833173915 L 0.6645038114559203 -0.9271327928805684 L 0.41531234534039607 -1.5812762123347395 L 0.45549544110686657 -1.5965836881104072 L 0.9405804031892296 -1.202448458066768 L 1.0404865562187395 -1.819432056379433 L 1.0797351613859898 -1.8343835443463647 L 1.3298611181007343 -1.1805961127009301 L 1.283136588139722 -1.162796722264107 Z M 2.003238500081892 -1.4915878582229216 L 1.6013738900585843 -1.4337878996518731 L 1.5413262091384419 -1.226124046234595 L 1.486886422066319 -1.2182940025858078 L 1.7059515290312723 -1.9570053663202729 L 1.7564320588617863 -1.9642659522491486 L 2.1748073677958724 -1.3172372814204845 L 2.12036758072375 -1.309407237771697 L 2.003238500081892 -1.4915878582229216 Z M 1.9783103576951975 -1.5314449494006368 L 1.7386692948700935 -1.9051348756871966 L 1.615048505777577 -1.4791972035987282 L 1.9783103576951975 -1.5314449494006368 Z M 2.4521459223177517 -1.9572623105611067 L 2.200236737014239 -1.9640270987854618 L 2.201471579309161 -2.0100105214995954 L 2.756271570751421 -1.9951118807673844 L 2.755036728456499 -1.9491284580532513 L 2.5031275431529867 -1.9558932462776064 L 2.485571307046922 -1.302128932037537 L 2.4345896862116874 -1.3034979963210374 L 2.4521459223177517 -1.9572623105611067 Z M 2.996682697315666 -1.9588529838065174 L 3.047129028933435 -1.9513584773978154 L 2.94426325469635 -1.258957847350005 L 2.893816923078581 -1.2664523537587067 L 2.996682697315666 -1.9588529838065174 Z M 3.3347152793997306 -1.2216247410198444 Q 3.268687969035988 -1.2891720894957837 3.2461635966935085 -1.380330756942041 Q 3.2236392243510292 -1.4714894243882986 3.252339988981679 -1.5683257094761522 Q 3.281040753612329 -1.6651619945640057 3.3496000157584245 -1.7293248932982659 Q 3.41815927790452 -1.793487792032526 3.510329859020934 -1.8141477527455225 Q 3.602500440137348 -1.834807713458519 3.701254275424961 -1.8055386168549852 Q 3.7741211830158212 -1.7839420018853875 3.8285207227402935 -1.7422653888060409 Q 3.882920262464766 -1.7005887757266944 3.912425174610134 -1.6417801015425737 L 3.872366893861394 -1.6192338348126887 Q 3.8154155623461885 -1.7226821109638413 3.689816024261943 -1.7599078551877534 Q 3.605443815472526 -1.784914461994656 3.525045368823502 -1.7670234090232961 Q 3.4446469221744778 -1.7491323560519363 3.385303441035242 -1.69318951695454 Q 3.3259599598960063 -1.6372466778571435 3.3012375190755456 -1.5538332441676062 Q 3.276515078255085 -1.470419810478069 3.295791155305988 -1.3911753604924224 Q 3.3150672323568906 -1.3119309105067756 3.3727324000905488 -1.2531199554877566 Q 3.430397567824207 -1.1943090004687376 3.514769776613624 -1.1693023936618347 Q 3.6394105395979897 -1.132360815424365 3.7447763659489017 -1.1887438149666862 L 3.766079691592465 -1.1480109251045085 Q 3.709294844748657 -1.1147771897001746 3.640349701145362 -1.109136518328695 Q 3.571404557542067 -1.1034958469572156 3.4994964250510865 -1.1248082959403713 Q 3.4007425897634738 -1.1540773925439052 3.3347152793997306 -1.2216247410198444 Z M 4.300804268811167 -0.822695845771432 Q 4.255091793965796 -0.9053555072969386 4.257591318820717 -0.9992224470334594 Q 4.260090843675638 -1.0930893867699802 4.313483370395882 -1.1788229163277215 Q 4.366875897116125 -1.264556445885463 4.45001587056496 -1.30820269217225 Q 4.5331558440137965 -1.351848938459037 4.627503095673646 -1.3472831850455325 Q 4.721850347333496 -1.3427174316320278 4.8092815705458465 -1.2882676271549482 Q 4.873793929420978 -1.248091072395161 4.915168473847211 -1.1934614369074361 Q 4.956543018273443 -1.138831801419711 4.969366459338064 -1.07429840418028 L 4.924758277876522 -1.0632029029886199 Q 4.897332171291669 -1.1780628554420156 4.7861332369147975 -1.2473145485148063 Q 4.711434716112013 -1.2938347698156123 4.629172189409368 -1.2979428959695514 Q 4.546909662706724 -1.3020510221234907 4.474837901858757 -1.2638815148136808 Q 4.402766141010792 -1.225712007503871 4.356774558588404 -1.1518623335283908 Q 4.310782976166016 -1.0780126595529107 4.308316655157009 -0.9964947642128044 Q 4.305850334148001 -0.914976868872698 4.345821750577186 -0.8429609965344093 Q 4.385793167006371 -0.7709451241961205 4.460491687809156 -0.7244249028953145 Q 4.570841775358724 -0.655701848700942 4.687399421466727 -0.6820706775289578 L 4.697117436952666 -0.6371422881185296 Q 4.633544663559893 -0.620186389936741 4.5655780712383045 -0.6330624269121089 Q 4.497611478916716 -0.6459384638874768 4.433947966868889 -0.6855863797688455 Q 4.346516743656538 -0.7400361842459253 4.300804268811167 -0.822695845771432 Z M 5.241304027536938 -0.2884677672797843 L 4.943906389757768 -0.5648563434608007 L 4.744603583674008 -0.4811402071002441 L 4.7043157263393915 -0.5185820092922537 L 5.416714846269452 -0.8121318243541544 L 5.454072677616097 -0.7774130623215637 L 5.213407741749547 -0.045453781593223 L 5.17311988441493 -0.0828955837852326 L 5.241304027536938 -0.2884677672797843 Z M 5.256659085807824 -0.3328999874077242 L 5.3969049464624135 -0.7540924595261768 L 4.987829201411381 -0.5827389220344066 L 5.256659085807824 -0.3328999874077242 Z M 5.867365693392956 -0.33762323914407893 L 5.89809510958216 -0.29692062275802 L 5.376143911219757 0.09713894955059957 L 5.618966552871705 0.41876942805220224 L 5.5822543890725145 0.44648615637971983 L 5.308702331231363 0.08415306149205826 L 5.867365693392956 -0.33762323914407893 Z M 5.7442574023186515 0.6563047068175639 Q 5.747901200391128 0.5619173520733662 5.798601758353144 0.4828812627069239 Q 5.8493023163151605 0.4038451733404816 5.939348181343686 0.35809867411633656 Q 6.02939404637221 0.3123521748921916 6.123123489743075 0.31801269124564874 Q 6.216852933113941 0.323673207599106 6.295231111107051 0.37639048384210216 Q 6.373609289100161 0.42910776008509843 6.420261659596071 0.5209367115498316 Q 6.45468476792315 0.5886939961257512 6.461829839776085 0.6568496851635447 Q 6.4689749116290205 0.725005374201338 6.4465629407747365 0.7868657295383934 L 6.402648074229054 0.7732832225431854 Q 6.438599567917562 0.6607999344441744 6.379264999616939 0.5440077728725234 Q 6.339406663659267 0.4655519696793533 6.271133569151551 0.41947828341115545 Q 6.202860474643833 0.3734045971429576 6.1214363166962995 0.36878328753041023 Q 6.040012158748765 0.36416197791786276 5.962447898773699 0.40356737823965105 Q 5.884883638798633 0.44297277856143935 5.840600202993475 0.5114580128334367 Q 5.796316767188316 0.5799432471054342 5.793266404247697 0.6622517842442419 Q 5.790216041307077 0.7445603213830497 5.830074377264748 0.8230161245762198 Q 5.888956009929489 0.9389167429297666 6.002345169300265 0.9766513230544835 L 5.98741818345107 1.0201275820179447 Q 5.924242005367351 1.0017490477256215 5.8727390764003164 0.9555679010549658 Q 5.821236147433281 0.9093867543843102 5.787265974742085 0.8425210130264947 Q 5.740613604246175 0.7506920615617616 5.7442574023186515 0.6563047068175639 Z M 6.061380483739874 1.2999145549004776 Q 6.116498774223643 1.2088474145360915 6.2593564811171305 1.170173449376899 L 6.648354155968991 1.064865287490719 L 6.661680995314389 1.1140932810823936 L 6.274613830015142 1.2188788218177737 Q 6.150095963871495 1.2525878860443673 6.103736982136422 1.3262617946720976 Q 6.057378000401348 1.3999357032998279 6.0866447848461425 1.5080442382462507 Q 6.1156502587155375 1.6151875184163662 6.192843888347805 1.655413673392903 Q 6.270037517980072 1.6956398283694396 6.39455538412372 1.661930764142846 L 6.781622549422966 1.557145223407466 L 6.794949388768363 1.6063732169991407 L 6.405951713916503 1.7116813788853207 Q 6.263094007023015 1.7503553440445132 6.169432406667753 1.6990474049035658 Q 6.075770806312491 1.6477394657626183 6.0410164997842974 1.5193605805137411 Q 6.006262193256104 1.390981695264864 6.061380483739874 1.2999145549004776 Z M 6.852922968206473 2.0051859887851236 L 6.856773833547754 2.0560403970121723 L 6.204640833930306 2.1054220819768408 L 6.235070220842785 2.5072716214964608 L 6.189201538912506 2.5107449510199698 L 6.1549212866587455 2.058041003273301 L 6.852922968206473 2.0051859887851236 Z M 6.335466265088227 3.125698249148898 L 6.374835488267013 2.7216115452519505 L 6.187394060176405 2.6139281619685786 L 6.192727329326241 2.5591873523273665 L 6.85820467628263 2.9475478815883682 L 6.853259281252782 2.9983075414374922 L 6.12533420097832 3.2509121287026823 L 6.130667470128155 3.1961713190614702 L 6.335466265088227 3.125698249148898 Z M 6.380106027423118 3.1109574344263504 L 6.80004436594347 2.9669998301090867 L 6.415693477932019 2.745686941002263 L 6.380106027423118 3.1109574344263504 Z M 6.681299230957023 3.6715867243118234 L 6.747424094778991 3.428417025573419 L 6.79181221438997 3.440487437223461 L 6.646180073829683 3.9760397499211364 L 6.6017919542187045 3.9639693382710948 L 6.6679168180406725 3.7207996395326908 L 6.036833552267195 3.549189873899487 L 6.050215965183546 3.49997695867862 L 6.681299230957023 3.6715867243118234 Z M 5.907624797848574 4.050662626604657 Q 5.985917048833424 3.9966110453537325 6.079556856981933 3.989622745853109 Q 6.173196665130442 3.982634446352485 6.262983942187448 4.026659948946873 Q 6.352771219244454 4.070685451541261 6.404586799928294 4.148995065244793 Q 6.456402380612135 4.227304678948325 6.4616122972903005 4.3222999776120306 Q 6.466822213968467 4.417295276275736 6.421475946296247 4.509776171644452 Q 6.376129678624028 4.602257067013168 6.298286364024463 4.656528775777065 Q 6.220443049424898 4.710800484540961 6.126803241276389 4.717788784041584 Q 6.03316343312788 4.724777083542208 5.942478283300304 4.680311325921876 Q 5.851793133472728 4.635845568301544 5.799977552788888 4.557535954598013 Q 5.748161972105047 4.47922634089448 5.743400991812166 4.3844511697437465 Q 5.738640011519285 4.2896759985930135 5.783986279191505 4.197195103224297 Q 5.829332546863725 4.104714207855581 5.907624797848574 4.050662626604657 Z M 5.792100661106024 4.378259061002054 Q 5.79675746508681 4.4596182287502835 5.8420070393483 4.527468991672699 Q 5.88725661360979 4.595319754595115 5.965371544649385 4.633621941852233 Q 6.043486475688981 4.6719241291093505 6.124836962077869 4.666149324845022 Q 6.206187448466757 4.660374520580692 6.273360466131575 4.614235754907973 Q 6.340533483796393 4.568096989235254 6.379275926079455 4.48908418542509 Q 6.418018368362516 4.410071381614924 6.4135816918947 4.32826327748141 Q 6.409145015426885 4.246455173347895 6.363895441165395 4.178604410425479 Q 6.318645866903905 4.1107536475030635 6.24053093586431 4.072451460245946 Q 6.162416004824715 4.034149272988828 6.081065518435827 4.039924077253158 Q 5.999715032046939 4.045698881517486 5.932321886869149 4.092286583575491 Q 5.864928741691359 4.138874285633495 5.826186299408298 4.21788708944366 Q 5.787443857125236 4.296899893253825 5.792100661106024 4.378259061002054 Z M 5.203510230194826 5.079008335108939 L 5.490655926908566 5.0928773242134495 Q 5.509652491835763 5.060734976431019 5.528857028333448 5.0364001088967765 L 5.652757263802382 4.879400963514572 L 5.472993242339757 4.737535193902643 L 5.504587802384335 4.69750041183018 L 6.054084811222053 5.131151235971449 L 5.898590015708541 5.328185163426116 Q 5.8168158602990445 5.4318045993783715 5.721291039066256 5.451960455312657 Q 5.625766217833466 5.472116311246942 5.5386316921463425 5.403351680561683 Q 5.473477046812727 5.351933082842075 5.455453588279403 5.283568947928384 Q 5.437430129746079 5.215204813014691 5.468315821037353 5.138941623509792 L 5.167579161908836 5.124538087269778 L 5.203510230194826 5.079008335108939 Z M 5.564181836044444 5.064277661877287 Q 5.494797704181841 5.152197183291322 5.497104423200602 5.229177239457633 Q 5.499411142219362 5.306157295623945 5.570845753368265 5.36253190276231 Q 5.642280364517169 5.418906509900674 5.7176882224626 5.4032570702914855 Q 5.793096080408031 5.387607630682296 5.862480212270634 5.299688109268261 L 5.986380447739568 5.142688963886056 L 5.688082071513378 4.907278516495082 L 5.564181836044444 5.064277661877287 Z" fill="#ffffff" fill-rule="nonzero"></path></g><g><path d=" M 1.7819485851755117 6.660329624266191 L 1.8516605278647078 6.673792352314333 L 1.80103308576817 6.935948531159619 Q 1.7447685435450608 6.968877261600133 1.674622868822759 6.978755739101906 Q 1.6044771941004574 6.98863421660368 1.531819676368056 6.974602640891531 Q 1.4287245498558647 6.954692972651319 1.3549707794942045 6.893599754063333 Q 1.281217009132544 6.832506535475347 1.2495415033134207 6.743383517510835 Q 1.2178659974942974 6.654260499546323 1.2370172021825008 6.555092806425073 Q 1.2561684068707042 6.455925113303822 1.3187513024341557 6.385005220587503 Q 1.3813341979976075 6.314085327871185 1.4725326300554529 6.284847578467537 Q 1.5637310621132987 6.255609829063889 1.667808046973225 6.275709113192103 Q 1.7463567147920374 6.290878384232264 1.8073060189462413 6.3286200365956455 Q 1.8682553231004455 6.366361688959026 1.9039400126961619 6.424176937193877 L 1.84986258196425 6.461601948689337 Q 1.7839168419183973 6.365351445470886 1.6582389734082976 6.341080611806629 Q 1.5747810138508094 6.324963261326458 1.5004131212308758 6.348794261038388 Q 1.4260452286109422 6.372625260750318 1.3751432964971373 6.430523821242628 Q 1.3242413643833322 6.488422381734937 1.3086928615671671 6.568934766249219 Q 1.293144358751002 6.6494471507635025 1.3189221857045401 6.721644821346101 Q 1.3447000126580781 6.7938424919287 1.4042609765599923 6.844046989526773 Q 1.4638219404619062 6.894251487124845 1.5472799000193944 6.9103688376050165 Q 1.653320601574791 6.930847353509234 1.7371992356070365 6.892048194331687 L 1.7819485851755117 6.660329624266191 Z M 2.5876469399729523 6.855779905237082 L 2.197656659116712 6.858533237340402 L 2.1149789399151655 7.046121602511673 L 2.037980858823036 7.046665209106431 L 2.353031006006812 6.344423509433533 L 2.4260291867824675 6.343908142142398 L 2.750963090234572 7.04163155323549 L 2.6729650340633238 7.042182219656153 L 2.5876469399729523 6.855779905237082 Z M 2.560224023282394 6.795972015789428 L 2.3895737154498384 6.4211674367930485 L 2.2242323966985564 6.798344117293827 L 2.560224023282394 6.795972015789428 Z M 3.1129505769319734 6.942127384856492 Q 3.0220382518106694 6.9134359376807515 2.959446481384193 6.842861365242236 Q 2.896854710957717 6.77228679280372 2.8770038768854844 6.673256775199779 Q 2.857153042813252 6.57422675759584 2.8877083186479076 6.484980608554729 Q 2.918263594482563 6.395734459513618 2.9915842193479913 6.334122074643829 Q 3.06490484421342 6.272509689774039 3.1668763474887642 6.252069226966987 Q 3.243354974945272 6.236738879861699 3.313177775417927 6.249259923514522 Q 3.383000575890581 6.261780967167344 3.437930501765758 6.301764754423526 L 3.4010847430925875 6.357085546787685 Q 3.3043710730775535 6.291820961963884 3.18180917010238 6.316388825914666 Q 3.100428066526865 6.332701887577986 3.0412230219494085 6.383325624071665 Q 2.982017977371952 6.433949360565343 2.9572407434216124 6.506228947433076 Q 2.932463509471272 6.578508534300809 2.948580028222986 6.658909142652522 Q 2.9646965469746993 6.739309751004236 3.015417445257066 6.796455533678286 Q 3.066138343539433 6.8536013163523375 3.140280649398965 6.8774952168675645 Q 3.2144229552584975 6.901389117382791 3.2958040588340127 6.8850760557194715 Q 3.4193464570329875 6.860311648857082 3.4822569655859734 6.762030074217658 L 3.537577757950133 6.798875832890829 Q 3.5023021232355824 6.856941568014786 3.4423075780103565 6.89599479506734 Q 3.38231303278513 6.935048022119893 3.3058344053286217 6.950378369225182 Q 3.2038629020532774 6.970818832032233 3.1129505769319734 6.942127384856492 Z" fill="#e9ae3f" fill-rule="nonzero"></path></g><g clip-path="url(&quot;#SvgjsClipPath1033&quot;)"><path d=" M 0.10612755975068798 0.9500246383200388 L 0.9346544400113121 0.4713527481341284 L 1.7207302963716504 0.9258714695491911 C 2.1130734771102095 1.1595827922681998 2.601917832641481 1.1595827922681998 2.9942610133800267 0.9258714695491977 L 3.7803368697403648 0.4713527481341284 L 4.608863750000989 0.9500246383200388 L 3.2972734943233974 1.7075558406784654 C 2.7181835425287058 2.0523160649931373 1.9968077672229847 2.0523160649931373 1.417717815428293 1.7075558406784654 Z" fill="#de6d2e" transform="matrix(1,0,0,1,0,0)" fill-rule="evenodd"></path><path d=" M 2.4643551288317163 5.034105903208957 L 3.292150094887157 4.555434013023053 L 3.292150094887157 3.647860398603287 C 3.285890451723419 3.191195363897154 3.5303169455755077 2.7678037245464773 3.9289154533913524 2.54486569140121 L 4.7149913097516905 2.091078884191331 L 4.7149913097516905 1.1344670180246994 L 3.404132968279268 1.8912663061779498 C 2.8157728753591336 2.2201623626146127 2.4549951494704203 2.8450608535620376 2.4643551288317025 3.5190434984921035 Z" fill="#bd2949" transform="matrix(1,0,0,1,0,0)" fill-rule="evenodd"></path><path d=" M 0 1.1344670180246994 L 0 2.091078884191331 L 0.7860758563603383 2.5455976056063934 C 1.1844414983103384 2.7684100892877184 1.4288307359571626 3.1914562868694447 1.4228412148645198 3.6478603986032936 L 1.4228412148645198 4.55543401302306 L 2.250636180919974 5.034105903208964 L 2.250636180919974 3.5183115842869275 C 2.2597258729678527 2.8445898484328325 1.898985444661191 2.22003691064024 1.310858341472382 1.8912663061779498 Z" fill="#bd2949" transform="matrix(1,0,0,1,0,0)" fill-rule="evenodd"></path><path d=" M 1.2669434891617706 0.30301248094337063 L 1.22156480844078 0.3293613923297536 L 1.826125941917169 0.666773840916452 C 1.9088358072872333 0.714974573360612 1.9973885392447788 0.7523635046315783 2.0896150557809583 0.7780248001033934 C 2.1781030447473717 0.8022210885857746 2.2694187774704617 0.8145277911091057 2.3611552259017197 0.8146205103622564 C 2.452891674332964 0.8145277911091057 2.544207407056067 0.8022210885857746 2.6326953960224673 0.7780248001033934 C 2.724174176295575 0.7525482658009953 2.81199343637356 0.7154034247035893 2.8939887672707347 0.6675057551216281 L 3.495622243926419 0.32204225027797834 L 3.488303101874644 0.31765076504691453 C 3.154115883857994 0.1142740052064721 2.771365834198758 0.00455569506637112 2.380184995236327 0 C 1.9886759550228639 -0.00042827860380712445 1.6042254167528953 0.10421506317382336 1.2669434891617706 0.30301248094336397 Z" fill="#bd2949" transform="matrix(1,0,0,1,0,0)" fill-rule="evenodd"></path><path d=" M 4.6966934546222525 2.4606955578058347 L 4.6966934546222525 2.407997735033069 L 4.101647205813173 2.7629761245440227 C 4.018704565681917 2.8103024142130506 3.9422005274921337 2.868110931816254 3.874021888003051 2.934975962760675 C 3.808558391556091 3.0003197645854662 3.7521833267745786 3.0741735612424756 3.7064135350174694 3.1545502243138395 C 3.6605434476952072 3.233908638983537 3.625584494018978 3.319090314842532 3.6024817178823034 3.4077925393051554 C 3.5786845158671663 3.499567588654959 3.5668756369975427 3.5940386196119904 3.5673498360337925 3.6888475940932137 L 3.5673498360337925 4.383434174806401 L 3.574668978085568 4.379042689575337 C 3.9176798896553087 4.1910438928619556 4.204034082405039 3.914546552289835 4.403927772551375 3.5783285491114483 C 4.599802263590832 3.2387079630411884 4.700909725575963 2.852730226912945 4.6966934546222525 2.4606955578058347 Z" fill="#de6d2e" transform="matrix(1,0,0,1,0,0)" fill-rule="evenodd"></path><path d=" M 0.018297855129424802 2.4606955578058347 L 0.018297855129424802 2.407997735033069 L 0.6133441039385167 2.7629761245440227 C 0.6960403182436724 2.8106753012252934 0.7724993681486215 2.8684498244653684 0.8409694217486394 2.934975962760675 C 0.9064329181955993 3.0003197645854662 0.9628079829771121 3.0741735612424756 1.008577774734221 3.1545502243138395 C 1.0541436519389562 3.2340577892378515 1.0890855344472663 3.319197869152448 1.1125095918693872 3.4077925393051554 C 1.1359304931838503 3.499639188437881 1.1477333259746259 3.594061850764093 1.1476414737178977 3.6888475940932137 L 1.1476414737178977 4.383434174806401 L 1.1403223316661224 4.379042689575337 C 0.7987286860438609 4.1896957469796705 0.5139470502400453 3.912494811330367 0.3154550224313726 3.576132806495927 C 0.11842614646657366 3.237588106483891 0.015808487426844788 2.85239275580275 0.018297855129424802 2.4606955578058347 Z" fill="#de6d2e" transform="matrix(1,0,0,1,0,0)" fill-rule="evenodd"></path></g><g><path d=" M -1.1248200345532497 2.51705295160448 A 3.482315689429095 3.482315689429095 0 0 1 5.83981134430494 2.51705295160448 A 3.482315689429095 3.482315689429095 0 0 1 -1.1248200345532497 2.51705295160448 Z M -1.07482003455325 2.5170529516044806 A 3.432315689429095 3.432315689429095 0 0 0 5.78981134430494 2.5170529516044806 A 3.432315689429095 3.432315689429095 0 0 0 -1.07482003455325 2.5170529516044806 Z" fill="#ffffff" fill-rule="nonzero"></path></g><g><path d=" M -2.671299965728673 2.5170529516044806 A 5.028795620604519 5.028795620604519 0 0 1 7.386291275480364 2.5170529516044806 A 5.028795620604519 5.028795620604519 0 0 1 -2.6712999657286733 2.5170529516044806 Z M -2.621299965728673 2.5170529516044797 A 4.978795620604518 4.978795620604518 0 0 0 7.336291275480363 2.5170529516044797 A 4.978795620604518 4.978795620604518 0 0 0 -2.6212999657286726 2.5170529516044797 Z" fill="#ffffff" fill-rule="nonzero"></path></g><g transform="matrix(-0.9444392369647743,-0.32868606249945403,0.32868606249945403,-0.9444392369647743,-1.6459075577550173,11.879848900027469)"><g clip-path="url(&quot;#SvgjsClipPath1034&quot;)"><path d=" M 0.1811251051028699 6.274355111062326 C 0.2898504399304561 6.274355111062326 0.3799104342408009 6.18448779123474 0.3799104342408009 6.075569781924395 C 0.3799104342408009 5.966844884993361 0.2898504399304561 5.8767851096312915 0.18093243062011122 5.8767851096312915 C 0.07220687684424917 5.8767851096312915 -0.01766022403506118 5.966844884993361 -0.01766022403506118 6.075569781924395 C -0.01766022403506118 6.18448779123474 0.07239933237873192 6.274355111062326 0.1811251051028699 6.274355111062326 Z M 0.1811251051028699 6.2352925491657745 C 0.09260497401666298 6.2352925491657745 0.02159654498218022 6.16409056985543 0.02159654498218022 6.075569781924395 C 0.02159654498218022 5.98705118347612 0.09241251848218024 5.916041878648533 0.18093243062011122 5.916041878648533 C 0.26945321855114573 5.916041878648533 0.34065300837873197 5.98705118347612 0.34084568286149053 6.075569781924395 C 0.34084568286149053 6.16409056985543 0.26964589303390435 6.2352925491657745 0.1811251051028699 6.2352925491657745 Z" fill="#ffffff" transform="matrix(1,0,0,1,0,0)" fill-rule="nonzero"></path></g></g><g transform="matrix(0.9444392369647743,-0.32868606249945403,-0.32868606249945403,-0.9444392369647743,2.2499993847463173,13.31053423311677)"><g clip-path="url(&quot;#SvgjsClipPath1035&quot;)"><path d=" M 4.533866204648821 6.274355111062326 C 4.642591539476408 6.274355111062326 4.732651533786752 6.18448779123474 4.732651533786752 6.075569781924395 C 4.732651533786752 5.966844884993361 4.642591539476408 5.8767851096312915 4.5336735301660624 5.8767851096312915 C 4.424947976390201 5.8767851096312915 4.33508087551089 5.966844884993361 4.33508087551089 6.075569781924395 C 4.33508087551089 6.18448779123474 4.425140431924683 6.274355111062326 4.533866204648821 6.274355111062326 Z M 4.533866204648821 6.2352925491657745 C 4.4453460735626145 6.2352925491657745 4.374337644528132 6.16409056985543 4.374337644528132 6.075569781924395 C 4.374337644528132 5.98705118347612 4.445153618028132 5.916041878648533 4.5336735301660624 5.916041878648533 C 4.6221943180970975 5.916041878648533 4.693394107924684 5.98705118347612 4.693586782407442 6.075569781924395 C 4.693586782407442 6.16409056985543 4.622386992579856 6.2352925491657745 4.533866204648821 6.2352925491657745 Z" fill="#ffffff" transform="matrix(1,0,0,1,0,0)" fill-rule="nonzero"></path></g></g></g><defs><clipPath id="SvgjsClipPath1033"><path d=" M 0 0 h 4.7149913097516905 v 5.034105903208961 h -4.7149913097516905 Z"></path></clipPath><clipPath id="SvgjsClipPath1034"><path d=" M -0.1254024811040267 5.761560733131292 h 0.6130551724137931 v 0.63495 h -0.6130551724137931 Z"></path></clipPath><clipPath id="SvgjsClipPath1035"><path d=" M 4.227338618441925 5.761560733131292 h 0.6130551724137931 v 0.63495 h -0.6130551724137931 Z"></path></clipPath></defs></svg>